<?xml version="1.0" encoding="UTF-8" standalone="no"?>
<svg
   id="vector"
   width="108"
   height="108"
   viewBox="0 0 512 512"
   version="1.1"
   sodipodi:docname="flamingo.svg"
   inkscape:version="1.4 (e7c3feb100, 2024-10-09)"
   xmlns:inkscape="http://www.inkscape.org/namespaces/inkscape"
   xmlns:sodipodi="http://sodipodi.sourceforge.net/DTD/sodipodi-0.dtd"
   xmlns="http://www.w3.org/2000/svg"
   xmlns:svg="http://www.w3.org/2000/svg">
  <defs
     id="defs15" />
  <sodipodi:namedview
     id="namedview15"
     pagecolor="#ffffff"
     bordercolor="#000000"
     borderopacity="0.25"
     inkscape:showpageshadow="2"
     inkscape:pageopacity="0.0"
     inkscape:pagecheckerboard="0"
     inkscape:deskcolor="#d1d1d1"
     inkscape:zoom="5.237828"
     inkscape:cx="31.215229"
     inkscape:cy="56.893812"
     inkscape:window-width="1920"
     inkscape:window-height="1011"
     inkscape:window-x="0"
     inkscape:window-y="0"
     inkscape:window-maximized="1"
     inkscape:current-layer="vector" />
  <g
     transform="matrix(0.88088302,0,0,0.88088302,58.499645,27.239763)"
     id="g_0">
    <path
       fill="#00000000"
       d="m 324.38,71.11 q 2.87,14.23 -5.86,24.76"
       stroke-width="2"
       stroke="#fea065"
       stroke-linecap="butt"
       id="path1" />
    <path
       fill="#00000000"
       d="m 318.52,95.87 q -7.51,8.54 -20.29,9.5"
       stroke-width="2"
       stroke="#fd885e"
       stroke-linecap="butt"
       id="path2" />
    <path
       fill="#00000000"
       d="m 261.7,326.19 c -2.68,-8.81 -13.61,-7.71 -13.98,1.1"
       stroke-width="2"
       stroke="#fd885e"
       stroke-linecap="butt"
       id="path3" />
    <path
       fill="#00000000"
       d="m 242.91,327.51 c -2.05,-8.64 -11.81,-9.76 -14.44,-1.5"
       stroke-width="2"
       stroke="#fea065"
       stroke-linecap="butt"
       id="path4" />
    <path
       fill="#00000000"
       d="m 164.95,201.56 c 5.06,11.17 6.02,22.7 10.2,33.91 7.27,19.46 24.86,39.09 45.93,43.18 30.67,5.95 55.12,-26.57 46.75,-54.97 -4.96,-16.83 -17.02,-22.05 -30.62,-30.86"
       stroke-width="2"
       stroke="#fa8ba9"
       stroke-linecap="butt"
       id="path5" />
    <path
       fill="#00000000"
       d="m 261.74,396.03 -13.99,0.05"
       stroke-width="2"
       stroke="#feb62e"
       stroke-linecap="butt"
       id="path6" />
    <path
       fill="#00000000"
       d="m 357.91,144.5 c 1.9,-20.54 -24.88,-39.65 -39.39,-48.63"
       stroke-width="2"
       stroke="#feb62e"
       stroke-linecap="butt"
       id="path7" />
    <path
       fill="#00000000"
       d="m 261.7,381.99 -13.96,-0.04"
       stroke-width="2"
       stroke="#feb62e"
       stroke-linecap="butt"
       id="path8" />
    <path
       fill="#fd7295"
       d="m 324.38,71.11 q 2.87,14.23 -5.86,24.76 -7.51,8.54 -20.29,9.5 C 281,104.49 267.86,89.7 271.75,72.28 a 0.75,0.75 0 0 0 -0.83,-0.91 c -19.63,2.77 -32.81,19.09 -28.67,39.13 2.17,10.53 11.16,18.61 20.2,24.08 35.2,21.32 79.04,36.04 81.65,84.84 q 0.37,6.8 0.38,13.57 c 0.12,50.63 -32.29,87.66 -82.78,93.2 -2.68,-8.81 -13.61,-7.71 -13.98,1.1 l -4.81,0.22 c -2.05,-8.64 -11.81,-9.76 -14.44,-1.5 -26.46,-3.76 -51.97,-15.5 -69.24,-36.18 q -8.81,-10.54 -8.96,-10.7 -26.14,-27.39 -64.71,-33.42 a 0.32,0.31 27.9 0 1 -0.17,-0.54 q 34.34,-30.87 79.56,-43.61 c 5.06,11.17 6.02,22.7 10.2,33.91 7.27,19.46 24.86,39.09 45.93,43.18 30.67,5.95 55.12,-26.57 46.75,-54.97 -4.96,-16.83 -17.02,-22.05 -30.62,-30.86 q 36.85,1 71.53,11.12 a 0.28,0.28 0 0 0 0.31,-0.42 q -8.19,-11.6 -20.56,-18.97 -17.27,-10.28 -34.91,-19.94 -15.8,-8.67 -26.89,-20.54 C 210.32,126.52 206.99,100.08 216.4,78.41 233.95,38 286.44,28.59 317.57,59.43 q 4.68,4.63 6.81,11.68 z"
       id="path9" />
    <path
       fill="#fece34"
       d="m 324.38,71.11 c 21.57,14.69 50.76,44.79 33.53,73.39 1.9,-20.54 -24.88,-39.65 -39.39,-48.63 q 8.73,-10.53 5.86,-24.76 z"
       id="path10" />
    <path
       fill="#fd9d27"
       d="m 318.52,95.87 c 14.51,8.98 41.29,28.09 39.39,48.63 l -1.28,2.34 q -0.28,0.51 -0.75,0.17 l -57.65,-41.64 q 12.78,-0.96 20.29,-9.5 z"
       id="path11" />
    <path
       fill="#f6a4bd"
       d="m 237.21,192.82 c 13.6,8.81 25.66,14.03 30.62,30.86 8.37,28.4 -16.08,60.92 -46.75,54.97 -21.07,-4.09 -38.66,-23.72 -45.93,-43.18 -4.18,-11.21 -5.14,-22.74 -10.2,-33.91 q -7.03,-15.79 -19.19,-28.1 a 0.39,0.39 0 0 1 0.27,-0.66 q 47.42,-1.29 89.72,19.74 a 1.9,1.87 -33.3 0 0 1,0.2 q 0.43,-0.04 0.46,0.08 z"
       id="path12" />
    <path
       fill="#fd9d27"
       d="m 261.7,326.19 v 55.8 l -13.96,-0.04 -0.02,-54.66 c 0.37,-8.81 11.3,-9.91 13.98,-1.1 z"
       id="path13" />
    <path
       fill="#fece34"
       d="m 242.91,327.51 -23.28,53.84 q -0.24,0.56 0.37,0.56 l 27.74,0.04 13.96,0.04 q 22.49,0.02 45.49,0.01 0.71,0 2.76,1.28 c 1.92,1.21 12.26,9 13.12,13.05 0.97,4.57 -3.86,9.29 -8.39,8 -3.26,-0.93 -7.77,-5.49 -10.78,-7.96 a 1.4,1.39 65.1 0 0 -0.9,-0.33 l -41.26,-0.01 -13.99,0.05 Q 230,395.91 212.24,396.04 c -8.07,0.05 -12.83,-3.25 -9.18,-11.64 q 12.54,-28.91 25.41,-58.39 c 2.63,-8.26 12.39,-7.14 14.44,1.5 z"
       id="path14" />
    <path
       fill="#fd9d27"
       d="m 261.74,396.03 v 67.38 q 0,0.54 0.54,0.56 c 4.69,0.16 11.09,-1.35 13.83,3.78 1.82,3.4 0.54,7.57 -2.87,9.33 -3.56,1.85 -12.47,0.94 -16.66,0.9 -5.49,-0.04 -8.82,-1.95 -8.83,-7.69 q 0,-36.85 0,-74.21 z"
       id="path15" />
  </g>
</svg>
