<?xml version="1.0" encoding="UTF-8" standalone="no"?>
<svg
   viewBox="0 0 296 296"
   id="vector"
   version="1.1"
   sodipodi:docname="pokerio-icon.svg"
   inkscape:version="1.2.2 (732a01da63, 2022-12-09, custom)"
   xmlns:inkscape="http://www.inkscape.org/namespaces/inkscape"
   xmlns:sodipodi="http://sodipodi.sourceforge.net/DTD/sodipodi-0.dtd"
   xmlns="http://www.w3.org/2000/svg"
   xmlns:svg="http://www.w3.org/2000/svg">
  <defs
     id="defs34" />
  <sodipodi:namedview
     id="namedview32"
     pagecolor="#ffffff"
     bordercolor="#666666"
     borderopacity="1.0"
     inkscape:showpageshadow="2"
     inkscape:pageopacity="0.0"
     inkscape:pagecheckerboard="0"
     inkscape:deskcolor="#d1d1d1"
     showgrid="false"
     inkscape:zoom="1.3930627"
     inkscape:cx="63.888008"
     inkscape:cy="157.92541"
     inkscape:window-width="1452"
     inkscape:window-height="773"
     inkscape:window-x="234"
     inkscape:window-y="89"
     inkscape:window-maximized="0"
     inkscape:current-layer="vector" />
  <g
     id="group"
     transform="matrix(0.81745796,0,0,0.81745796,26.354018,26.820406)">
    <path
       id="path"
       d="m 122.01,9.03 c -36.37,4.49 -68.67,24.64 -86.74,58.4 -32.94,61.55 -6.11,145 59.93,186.41 23.12,14.49 47.97,21.91 71.93,22.79 44.49,1.64 85.89,-19.27 107.31,-59.27 C 307.38,155.81 280.55,72.35 214.51,30.95 191.39,16.45 166.54,9.04 142.58,8.16 135.63,7.9 128.75,8.2 122.01,9.03 Z m -17.63,19.33 18.2,41.21 c -14.8,4.98 -27.48,15 -35.47,29.56 L 48.66,74.65 C 57.88,57.84 71.57,44.3 88.31,35.27 93.43,32.51 98.8,30.21 104.37,28.36 Z m 44.28,-5.21 c 20.48,1.56 40.92,8.34 59.42,19.94 5.25,3.29 10.24,6.89 14.98,10.78 l -24.69,31.97 c -3,-2.47 -6.18,-4.78 -9.55,-6.89 -12.18,-7.63 -25.2,-11.8 -37.88,-12.78 z m -8.52,58.74 c 10.32,-1.235 21.14,0.348 31.367,4.588 10.228,4.241 19.508,10.992 26.903,19.572 7.396,8.58 12.649,18.69 15.23,29.31 3.897,16.036 1.442,32.173 -6.819,44.832 -8.261,12.659 -21.669,20.829 -37.251,22.698 -15.586,1.866 -32.1,-2.721 -45.878,-12.743 C 109.913,180.125 99.971,165.469 96.07,149.43 92.17,133.392 94.623,117.252 102.885,104.591 111.146,91.93 124.556,83.759 140.14,81.89 Z m -104.11,34.89 43.03,9.32 c -1.44,16.66 2.85,34.03 11.96,49.25 l -36.2,18.77 C 49.42,185.1 45.03,175.47 41.8,165.4 36.55,149.06 34.65,132.57 36.03,116.78 Z m 218.83,-26.1 c 5.42,9.03 9.82,18.67 13.06,28.76 5.25,16.33 7.15,32.79 5.77,48.56 l -43.04,-9.31 c 1.44,-16.66 -2.85,-34.03 -11.96,-49.25 z M 111.34,198.94 c 3,2.47 6.19,4.78 9.56,6.9 12.18,7.63 25.2,11.8 37.88,12.78 l 2.29,43.25 c -20.48,-1.58 -40.92,-8.46 -59.42,-20.06 -5.27,-3.3 -10.29,-6.93 -15.04,-10.83 z m 111.26,-13.29 38.46,24.49 c -9.22,16.83 -22.91,30.47 -39.66,39.51 -5.1,2.75 -10.46,5.06 -16.01,6.92 l -18.26,-41.35 c 14.8,-4.98 27.48,-15.01 35.46,-29.57 z"
       fill="#000000" />
    <path
       id="path_1"
       d="m 86.14,62.87 m -7,0.84 c -0.419,-1.543 -0.344,-3.118 0.212,-4.49 0.556,-1.372 1.565,-2.468 2.876,-3.126 1.311,-0.658 2.856,-0.842 4.403,-0.526 1.547,0.317 3.015,1.118 4.186,2.284 1.171,1.165 1.982,2.635 2.313,4.188 0.419,1.543 0.344,3.118 -0.212,4.49 -0.556,1.372 -1.565,2.468 -2.876,3.126 -1.311,0.658 -2.856,0.842 -4.403,0.526 -1.547,-0.317 -3.015,-1.118 -4.186,-2.284 -1.171,-1.165 -1.982,-2.635 -2.313,-4.188"
       fill="#000000" />
    <path
       id="path_2"
       d="m 59.14,153.98 m -7,0.84 c -0.419,-1.543 -0.344,-3.118 0.212,-4.49 0.556,-1.372 1.565,-2.468 2.876,-3.126 1.311,-0.658 2.856,-0.842 4.403,-0.526 1.547,0.317 3.015,1.118 4.186,2.284 1.171,1.165 1.982,2.635 2.313,4.188 0.419,1.543 0.344,3.118 -0.212,4.49 -0.556,1.372 -1.565,2.468 -2.876,3.126 -1.311,0.658 -2.856,0.842 -4.403,0.526 -1.547,-0.317 -3.015,-1.118 -4.186,-2.284 -1.171,-1.165 -1.982,-2.635 -2.313,-4.188"
       fill="#000000" />
    <path
       id="path_3"
       d="m 127.85,233.5 m -7,0.84 c -0.419,-1.543 -0.344,-3.118 0.212,-4.49 0.556,-1.372 1.565,-2.468 2.876,-3.126 1.311,-0.658 2.856,-0.842 4.403,-0.526 1.547,0.317 3.015,1.118 4.186,2.284 1.171,1.165 1.982,2.635 2.313,4.188 0.419,1.543 0.344,3.118 -0.212,4.49 -0.556,1.372 -1.565,2.468 -2.876,3.126 -1.311,0.658 -2.856,0.842 -4.403,0.526 -1.547,-0.317 -3.015,-1.118 -4.186,-2.284 -1.171,-1.165 -1.982,-2.635 -2.313,-4.188"
       fill="#000000" />
    <path
       id="path_4"
       d="m 223.57,221.91 m -7,0.84 c -0.419,-1.543 -0.344,-3.118 0.212,-4.49 0.556,-1.372 1.565,-2.468 2.876,-3.126 1.311,-0.658 2.856,-0.842 4.403,-0.526 1.547,0.317 3.015,1.118 4.186,2.284 1.171,1.165 1.982,2.635 2.313,4.188 0.419,1.543 0.344,3.118 -0.212,4.49 -0.556,1.372 -1.565,2.468 -2.876,3.126 -1.311,0.658 -2.856,0.842 -4.403,0.526 -1.547,-0.317 -3.015,-1.118 -4.186,-2.284 -1.171,-1.165 -1.982,-2.635 -2.313,-4.188"
       fill="#000000" />
    <path
       id="path_5"
       d="m 250.57,130.8 m -7,0.84 c -0.419,-1.543 -0.344,-3.118 0.212,-4.49 0.556,-1.372 1.565,-2.468 2.876,-3.126 1.311,-0.658 2.856,-0.842 4.403,-0.526 1.547,0.317 3.015,1.118 4.186,2.284 1.171,1.165 1.982,2.635 2.313,4.188 0.419,1.543 0.344,3.118 -0.212,4.49 -0.556,1.372 -1.565,2.468 -2.876,3.126 -1.311,0.658 -2.856,0.842 -4.403,0.526 -1.547,-0.317 -3.015,-1.118 -4.186,-2.284 -1.171,-1.165 -1.982,-2.635 -2.313,-4.188"
       fill="#000000" />
    <path
       id="path_6"
       d="m 181.85,51.28 m -7,0.84 c -0.419,-1.543 -0.344,-3.118 0.212,-4.49 0.556,-1.372 1.565,-2.468 2.876,-3.126 1.311,-0.658 2.856,-0.842 4.403,-0.526 1.547,0.317 3.015,1.118 4.186,2.284 1.171,1.165 1.982,2.635 2.313,4.188 0.419,1.543 0.344,3.118 -0.212,4.49 -0.556,1.372 -1.565,2.468 -2.876,3.126 -1.311,0.658 -2.856,0.842 -4.403,0.526 -1.547,-0.317 -3.015,-1.118 -4.186,-2.284 -1.171,-1.165 -1.982,-2.635 -2.313,-4.188"
       fill="#000000" />
    <path
       id="path_7"
       d="m 160.07,163.83 -41.58,-30.25 24.94,-38.21 41.58,30.25 z"
       fill="#000000" />
    <path
       id="path_8"
       d="m 172.53,144.72 m 20.79,15.12 c -2.587,4.129 -6.542,7.14 -11.282,8.59 -4.741,1.45 -10.022,1.264 -15.068,-0.531 -5.046,-1.794 -9.595,-5.104 -12.98,-9.443 -3.385,-4.339 -5.43,-9.483 -5.835,-14.676 -0.405,-5.193 0.852,-10.167 3.585,-14.19 2.587,-4.129 6.542,-7.14 11.282,-8.59 4.741,-1.45 10.022,-1.264 15.068,0.531 5.046,1.794 9.595,5.104 12.98,9.443 3.385,4.339 5.43,9.483 5.835,14.676 0.405,5.193 -0.852,10.167 -3.585,14.19"
       fill="#000000" />
    <path
       id="path_9"
       d="m 139.28,148.7 m 20.79,15.12 c -2.587,4.129 -6.542,7.14 -11.282,8.59 -4.741,1.45 -10.022,1.264 -15.068,-0.531 -5.046,-1.794 -9.595,-5.104 -12.98,-9.443 -3.385,-4.339 -5.43,-9.483 -5.835,-14.676 -0.405,-5.193 0.852,-10.167 3.585,-14.19 2.587,-4.129 6.542,-7.14 11.282,-8.59 4.741,-1.45 10.022,-1.264 15.068,0.531 5.046,1.794 9.595,5.104 12.98,9.443 3.385,4.339 5.43,9.483 5.835,14.676 0.405,5.193 -0.852,10.167 -3.585,14.19"
       fill="#000000" />
    <path
       id="path_10"
       d="m 154.52,141.01 q 7.84,32.27 -3.91,50.28 l 31.36,-3.75 q -19.61,-14.26 -27.45,-46.53"
       fill="#000000" />
    <path
       id="path_11"
       d="M 45.36,50.11 C 16.77,75.65 4.72,118.93 10.52,159.7 c 7.03,56.36 66.91,128.71 153.33,128.71 33.72,-0.35 67.45,-14.07 89.23,-38.72 -21.2,18.7 -49.23,28.94 -79.59,29.08 C 98.73,279.12 30.82,218.99 20.22,144.99 15.11,109.27 23.33,75.38 45.36,50.11 Z"
       fill="#000000"
       stroke-width="4.47233" />
  </g>
</svg>
